<svg class="svg-icon" style="width: 1em;height: 1em;vertical-align: middle;fill: currentColor;overflow: hidden;" viewBox="0 0 1024 1024" version="1.1" xmlns="http://www.w3.org/2000/svg"><path d="M810.67 128H640c0-23.47-19.2-42.67-42.67-42.67H426.67C403.2 85.33 384 104.53 384 128H213.33c-23.47 0-42.67 19.2-42.67 42.67V896c0 23.47 19.2 42.67 42.67 42.67h597.33c23.47 0 42.67-19.2 42.67-42.67V170.67c0-23.47-19.19-42.67-42.66-42.67zM768 853.33H256v-640h512v640z" fill="#1A1A1A" /><path d="M632.68 585.82c-10.92 0-21.84 4.17-30.17 12.5L481.83 718.99l-60.34-60.34c-8.33-8.33-19.25-12.5-30.17-12.5-10.92 0-21.84 4.17-30.17 12.5-16.66 16.66-16.66 43.68 0 60.34l90.51 90.51c8.33 8.33 19.25 12.5 30.17 12.5 10.92 0 21.84-4.17 30.17-12.5l150.85-150.85c16.66-16.66 16.66-43.68 0-60.34-8.33-8.33-19.25-12.49-30.17-12.49z" fill="#1A1A1A" /><path d="M384 341.24m-42.67 0a42.67 42.67 0 1 0 85.34 0 42.67 42.67 0 1 0-85.34 0Z" fill="#1A1A1A" /><path d="M469.33 341.24c0 23.57 19.1 42.67 42.67 42.67h128c23.57 0 42.67-19.1 42.67-42.67s-19.1-42.67-42.67-42.67H512c-23.57 0.01-42.67 19.11-42.67 42.67z" fill="#1A1A1A" /><path d="M384 469.24m-42.67 0a42.67 42.67 0 1 0 85.34 0 42.67 42.67 0 1 0-85.34 0Z" fill="#1A1A1A" /><path d="M640 426.58H512c-23.57 0-42.67 19.1-42.67 42.67s19.1 42.67 42.67 42.67h128c23.57 0 42.67-19.1 42.67-42.67s-19.1-42.67-42.67-42.67z" fill="#1A1A1A" /></svg>